<svg xmlns="http://www.w3.org/2000/svg" xml:space="preserve" style="enable-background:new 0 0 511.999 511.999"
     viewBox="0 0 511.999 511.999"><circle cx="255.997" cy="255.997" r="167.991" style="fill:currentColor"/>
    <path d="M255.999 0c-7.664 0-13.877 6.214-13.877 13.877s6.213 13.877 13.877 13.877c57.945 0 110.905 21.716 151.199 57.422l-32.781 32.782c-32.95-28.356-74.49-43.825-118.418-43.825-45.156 0-86.517 16.549-118.35 43.892L95.045 75.42c-.078-.078-.162-.143-.24-.216-.069-.072-.129-.15-.2-.221-5.417-5.417-14.206-5.417-19.624 0C26.629 123.333 0 187.621 0 255.999c0 141.159 114.84 255.999 255.999 255.999 68.379 0 132.666-26.628 181.018-74.981 48.352-48.35 74.981-112.638 74.981-181.018C511.999 114.842 397.158 0 255.999 0zm109.044 147.093c5.416 5.423 14.201 5.43 19.624.012.402-.402.765-.827 1.107-1.263.029-.029.062-.054.092-.083l40.957-40.958c32.834 37.053 53.823 84.82 56.987 137.322h-15.439c-7.664 0-13.877 6.214-13.877 13.877s6.213 13.877 13.877 13.877h15.443c-3.047 51.145-22.903 99.084-56.914 137.402l-32.928-32.929c27.344-31.833 43.892-73.192 43.892-118.35 0-7.663-6.213-13.877-13.877-13.877S410.11 248.337 410.11 256c0 84.978-69.135 154.114-154.114 154.114S101.882 340.979 101.882 256s69.135-154.114 154.114-154.114c41.205.001 79.93 16.054 109.047 45.207zM255.999 453.157c-7.664 0-13.877 6.214-13.877 13.877v16.778c-52.502-3.165-100.269-24.154-137.322-56.987l32.849-32.85c31.833 27.344 73.192 43.892 118.35 43.892s86.517-16.549 118.35-43.892l32.928 32.928c-38.32 34.01-86.259 53.866-137.401 56.914v-16.784c0-7.663-6.213-13.876-13.877-13.876zM28.188 269.876h46.47c3.011 39.73 18.85 75.932 43.367 104.473l-32.849 32.85c-32.833-37.053-53.823-84.819-56.988-137.323zm56.909-165.154 32.928 32.928c-24.517 28.542-40.355 64.743-43.367 104.473H28.183c3.048-51.144 22.904-99.082 56.914-137.401z"
          style="fill:#currentcolor"/>
    <path d="M333.33 286.048h-9.623c-2.829 0-5.198 2.217-5.392 5.048-.554 8.079-6.107 14.41-12.644 14.41h-8.542c-6.997 0-12.69-7.063-12.69-15.744v-24.963c0-8.681 5.692-15.744 12.69-15.744h8.542c6.536 0 12.091 6.331 12.644 14.41.194 2.831 2.563 5.048 5.392 5.048h9.623a5.36 5.36 0 0 0 3.919-1.68 5.45 5.45 0 0 0 1.489-4.008c-.949-19.176-15.474-34.198-33.068-34.198h-8.542c-18.26 0-33.117 16.226-33.117 36.171v24.963c0 19.945 14.856 36.171 33.117 36.171h8.542c17.594 0 32.119-15.02 33.068-34.199a5.456 5.456 0 0 0-1.488-4.006 5.368 5.368 0 0 0-3.92-1.679z"
          style="fill:#0d0c0c"/>
    <path d="M245.675 325.932a4.08 4.08 0 0 1-2.967-1.303l-44.423-47.777v44.835c0 2.342-1.85 4.246-4.123 4.246h-16.785c-2.273 0-4.123-1.904-4.123-4.246V190.302c0-2.335 1.85-4.234 4.123-4.234h16.785c2.273 0 4.123 1.898 4.123 4.234v53.44l38.993-51.124a4.091 4.091 0 0 1 3.24-1.625h20.848c1.528 0 2.927.866 3.65 2.26a4.336 4.336 0 0 1-.429 4.64l-48.038 62.036 52.053 58.906a4.383 4.383 0 0 1 .662 4.721c-.692 1.435-2.154 2.376-3.713 2.376h-19.876zM321.901 192.394a4.32 4.32 0 0 0-3.82-2.291h-8.716a4.304 4.304 0 0 0-3.677 2.048l-4.243 6.827-4.245-6.827a4.307 4.307 0 0 0-3.679-2.048h-8.848a4.332 4.332 0 0 0-3.802 2.262 4.328 4.328 0 0 0 .193 4.478l12.56 18.904a4.346 4.346 0 0 0 3.6 1.905h8.448a4.325 4.325 0 0 0 3.62-1.952l12.407-18.868a4.31 4.31 0 0 0 .202-4.438z"
          style="fill:#0d0c0c"/>
</svg>
