<svg xmlns="http://www.w3.org/2000/svg" xmlns:xlink="http://www.w3.org/1999/xlink" version="1.1" x="0px" y="0px" viewBox="0 0 256 256" enable-background="new 0 0 256 256" xml:space="preserve" width="512.001" height="512.001">
    <g><g><g><path style="fill:currentColor" d="M121,10.1c-25.7,1.3-50.3,11.4-70.8,29c-20.4,17.5-34.9,44-39.1,71.8c-1.1,7-1.4,20.5-0.7,27.8c2.1,22.9,10.8,44.7,25,62.8c4,5,16.1,16.9,21.2,20.7c20.1,15.1,42.4,22.9,67.4,23.8c32.4,1.2,63.7-11,86.9-33.8c19.5-19.2,31.8-44.7,34.7-71.6c0.7-6.7,0.6-20.3-0.2-27c-2.7-21.5-10.9-41.3-24.4-58.8c-4.6-5.9-15.4-16.5-21.5-21C176,16.4,150.1,8.6,121,10.1z M144,35c19.9,3.7,37,12.6,50.7,26.4c17.8,17.9,27.5,41.2,27.5,66.5c0,26.4-10.1,50-29.3,68.4c-36.1,34.6-93,34.7-129.7,0.2c-34.8-32.8-39.3-86.6-10.5-125.2c3.4-4.5,11.4-12.9,16-16.6c13-10.5,28.4-17.3,45.3-20C120.8,33.6,137.5,33.7,144,35z"/><path style="fill:currentColor" d="M75.5,83.9c-2,0.9-4.3,3.7-4.9,6c-0.4,1.4-0.5,12.7-0.5,39.7c0,35.8,0.1,37.8,0.9,39.7c2.4,5.5,9,7.5,14.3,4.4c1.6-0.9,2.4-1.8,3.4-3.9c1.3-2.6,1.3-2.8,1.6-13.5l0.2-10.8l6.2-5.9c5.2-4.9,6.3-5.8,6.8-5.3c0.6,0.6,18.8,28.5,22.2,33.9c2.2,3.5,5.2,6,8,6.6c4.6,1.1,9.2-0.2,11.5-3.2c1.1-1.4,1.3-2.1,1.3-5.2c0-3.2-0.2-3.8-1.7-6.6c-0.9-1.7-7.5-11.3-14.6-21.5l-13-18.4l2.8-2.6c21.8-20.6,22.2-21,22.2-25.4c0-2.7-0.8-4.5-2.8-6.4c-1.8-1.7-3.4-2.2-6.7-2.2c-5.2,0-3.4-1.6-31.5,27.6l-10.6,11l-0.2-15.4c-0.2-15.3-0.2-15.4-1.4-17.7c-0.7-1.3-2-3-2.9-3.7c-1.6-1.3-2.2-1.4-5.4-1.6C78.2,83.3,76.4,83.5,75.5,83.9z"/><path style="fill:currentColor" d="M158,108c-1.4,0.7-2.3,1.5-3.3,3.2l-1.3,2.2l-0.1,26.8c-0.1,18.8,0,27.3,0.4,28.6c1.1,3.6,4.7,6.4,8.4,6.4c3.9,0,7.8-2.8,8.8-6.3c0.3-1.1,0.5-6.1,0.5-12.1c0-21.9,1.7-30,6.5-32.4c2.4-1.3,4.8-1.2,10.1,0.3c4.3,1.2,4.5,1.2,6.5,0.4c4.8-1.8,6.8-7.7,4.2-11.7c-3-4.6-13.1-7.5-19.6-5.6c-2.2,0.7-3.3,1.4-5.6,3.7c-2.9,2.9-2.9,2.9-3.2,1.7C168.9,108.1,163.1,105.6,158,108z"/></g></g></g>
</svg>
