<svg xmlns="http://www.w3.org/2000/svg" width="512.001" height="512.001" shape-rendering="geometricPrecision" text-rendering="geometricPrecision" image-rendering="optimizeQuality" fill-rule="evenodd" clip-rule="evenodd" viewBox="0 0 13546.66 13546.66"><path fill="#ffffff"  d="M6773.39 0c1870.33 0 3563.8 758.31 4789.38 1983.89 1225.71 1225.58 1983.89 2919.17 1983.89 4789.5s-758.18 3563.81-1983.89 4789.39c-1225.58 1225.7-2919.05 1983.89-4789.38 1983.89s-3563.93-758.31-4789.51-1983.89C758.3 10337.2-.01 8643.72-.01 6773.39c0-1870.33 758.31-3563.92 1983.89-4789.5C3209.46 758.31 4903.06 0 6773.39 0zm296.5 8637.88H4373.24V8087.7l1582.77-2150.69H4468.06v-712.64h2547.59v605.41L5475.7 7925.12h1594.19v712.76zm1816.96-3698.96l286.69 270.19-868.02 922.01v2506.76h-795.29V6976.05l-482.29 512.2-286.69-270.06 768.98-816.89V4364.05h795.29v1192.32l581.33-617.45zm3205 2031.43c-12.41 339.56-56.72 670.19-129.32 989.64l1010.37 270.81c95.2-406.58 151.42-828.06 164.57-1260.45h-1045.62zm-230.97 1369.92c-98.91 321.69-227.61 630.35-382.75 922.87l905.88 522.88c199.69-371.21 363.64-764.39 487.25-1175.07l-1010.38-270.68zm-579.21 1262.44c-179.09 284.83-384.37 551.42-612.48 796.41l740.18 738.32c291.66-309.65 552.79-648.47 778.17-1011.86l-905.87-522.87zm-889.62 1073.05c-243.01 225.38-507.61 428.42-788.96 605.65l522.99 905.88c361.78-224.52 699.36-484.53 1008.02-774.69l-742.05-736.84zm-1129.15 802.49c-292.03 154.76-600.94 283.71-922.63 382.63l270.81 1010.37c410.68-123.49 803.73-287.43 1174.82-487.13l-523-905.87zm-1302.78 484.27c-319.83 72.98-650.95 116.92-989.64 129.33v1045.62c432.27-13.16 853.87-69.38 1260.33-164.57l-270.69-1010.38zm-1383.82 129.33c-339.31-12.41-670.06-56.72-989.64-129.33l-270.69 1010.38c406.59 95.19 828.06 151.41 1260.33 164.57v-1045.62zm-1369.79-230.97c-321.82-99.04-630.11-227.62-922.63-382.63l-523 905.75c371.09 199.57 764.14 363.64 1174.82 487.25l270.81-1010.37zm-1262.82-579.47c-282.96-177.97-547.94-381.88-791.69-608.13l-739.32 739.32c308.66 290.29 646.24 550.05 1008.02 774.56l522.99-905.75zm-1070.19-886.64c-226.5-244-430.66-509.59-608.39-792.19l-905.87 523.12c224.64 361.91 484.52 699.61 774.94 1008.39l739.32-739.32zm-804.85-1131.63c-154.89-292.27-283.72-601.06-382.75-922.87l-1010.5 270.8c123.61 410.68 287.68 803.98 487.37 1175.07l905.88-523zm-484.4-1303.15c-72.85-319.95-116.91-650.95-129.32-989.64H409.18c13.16 432.39 69.38 853.99 164.57 1260.45l1010.5-270.81zm-129.32-1383.82c12.41-339.19 56.72-669.81 129.32-989.52L573.88 5315.84c-95.2 406.46-151.54 828.06-164.7 1260.33h1045.75zm230.97-1369.79c99.03-321.94 227.74-630.48 382.87-922.76l-906-522.99c-199.81 371.08-363.76 764.26-487.37 1174.94l1010.5 270.81zm579.34-1262.32c177.97-283.09 381.88-548.19 608.38-792.07l-739.44-739.44c-290.29 308.78-550.3 646.36-774.94 1008.39l906 523.12zm887.01-1070.44c243.87-226.5 509.22-430.54 791.57-608.14l-523.12-906c-361.78 224.52-699.36 484.28-1008.02 774.57l739.57 739.57zM4284 2068.64c292.03-154.76 601.06-283.59 922.51-382.63L4935.7 675.39C4525.15 799 4131.97 962.95 3760.88 1162.64l523.12 906zm1302.78-484.27c319.83-72.85 650.83-116.91 989.52-129.32V409.18c-432.27 13.15-853.87 69.37-1260.33 164.57l270.81 1010.62zm1383.7-129.32c339.19 12.41 669.94 56.59 989.52 129.32l270.81-1010.62c-406.46-95.2-828.06-151.42-1260.33-164.57v1045.87zm1369.79 230.96c321.69 98.92 630.11 227.74 922.51 382.63l523.12-906a6326.63 6326.63 0 00-1174.82-487.25l-270.81 1010.62zm1262.69 579.47c282.97 177.97 547.82 381.76 791.57 608.14l739.57-739.57c-308.66-290.17-646.24-550.05-1008.02-774.57l-523.12 906zm1068.09 884.28c229.6 246.98 433.64 512.82 610.62 794.18l905.87-522.88c-224.51-361.9-484.65-699.73-774.94-1008.51l-52.87 52.87-686.57 686.57-2.11-2.23zm807.08 1133.74c372.21 701.59 584.68 1482.61 613.72 2292.67h1045.62c-13.15-432.39-69.25-853.74-164.57-1260.2l-1010.37 270.68c-29.29-128.58-63.17-255.42-101.65-380.27l1010.38-270.68c-123.61-410.68-287.56-803.99-487.25-1175.07l-905.88 522.87zM6773.39 1819.31c2736.12 0 4954.2 2218.08 4954.2 4954.07 0 2736.12-2218.08 4954.2-4954.2 4954.2s-4954.2-2218.08-4954.2-4954.2c0-2735.99 2218.08-4954.07 4954.2-4954.07z"/></svg>
